<svg xmlns="http://www.w3.org/2000/svg" viewBox="0 0 295 78" width="295" height="78"><g fill-rule="evenodd"><path fill="#0072ad" d="m87.84 71.33h-76.86c-6.06 0-10.98-4.95-10.98-11.05v-44.22c0-6.11 4.92-11.06 10.98-11.06h76.86c6.06 0 10.97 4.95 10.97 11.06v44.22c0 6.1-4.91 11.05-10.97 11.05"/><path fill="#fff" d="m53.98 41.33c0 .15-.001.3-.05.43-.17.56-.76 1.03-1.5 1.03-.61 0-1.1-.34-1.1-1.06 0-1.11 1.24-1.41 2.65-1.41v1.01m2.21-1.93c0-1.82-.79-3.42-3.47-3.42-1.37 0-2.46.38-3.06.72l.44 1.46c.54-.34 1.41-.61 2.23-.61 1.36-.001 1.58.75 1.58 1.24v.11c-2.96 0-4.83 1-4.83 3.05 0 1.26.95 2.43 2.61 2.43 1.02 0 1.87-.4 2.38-1.04h.05c0 0 .34 1.39 2.2.86-.1-.58-.13-1.2-.13-1.94v-2.86m-46.31-5.94c0 0 1.93 7.86 2.24 9.14.36 1.49 1.01 2.04 2.88 1.67l1.21-4.88c.3-1.21.51-2.07.7-3.3h.04c.14 1.24.33 2.1.59 3.31 0 0 .49 2.21.74 3.37.25 1.16.95 1.9 2.78 1.5l2.88-10.81h-2.32l-.98 4.67c-.27 1.36-.51 2.43-.69 3.67h-.03c-.17-1.23-.38-2.25-.65-3.58l-1.03-4.76h-2.41l-1.1 4.64c-.31 1.41-.6 2.55-.78 3.75h-.03c-.19-1.13-.45-2.56-.72-3.92 0 0-.65-3.32-.87-4.47h-2.45m18.54 7.87c0 .15-.02.3-.06.43-.17.56-.76 1.03-1.49 1.03-.61 0-1.1-.34-1.1-1.06 0-1.11 1.24-1.41 2.65-1.41v1.01m2.21-1.93c0-1.82-.79-3.42-3.47-3.42-1.38 0-2.47.38-3.06.72l.43 1.46c.55-.34 1.41-.61 2.24-.61 1.35-.001 1.58.75 1.58 1.24v.11c-2.97 0-4.84 1-4.84 3.05 0 1.26.96 2.43 2.61 2.43 1.02 0 1.87-.4 2.38-1.04h.05c0 0 .34 1.39 2.21.86-.1-.58-.13-1.2-.13-1.94v-2.86m3.96 2.66v-8.6h-2.13v10.92h2.13v-2.32m28.97-8.6v7.92c0 1.09.22 1.86.68 2.33.4.4 1.07.67 1.87.67.68 0 1.35-.12 1.66-.23l-.03-1.71c-.23.06-.5.1-.87.1-.78 0-1.05-.47-1.05-1.46v-3.02h2v-2.06h-2v-2.54h-2.26m-5.54 2.71v8.21h2.23v-4.21c0-.22.02-.42.05-.6.17-.88.82-1.45 1.77-1.45.26 0 .44.03.64.06v-2.15c-.17-.03-.28-.05-.49-.05-.83 0-1.78.55-2.18 1.74h-.06v-1.55h-1.96m-22.15 0v8.21h2.25v-4.82c0-.22.02-.46.1-.67.19-.48.65-1.05 1.37-1.05.91 0 1.33.76 1.33 1.86v4.68h2.25v-4.88c0-.21.03-.47.09-.66.19-.55.68-1 1.35-1 .92 0 1.36.75 1.36 2.04v4.5h2.25v-4.84c0-2.55-1.3-3.56-2.78-3.56-.65 0-1.16.16-1.63.45-.39.24-.74.57-1.05 1.02h-.03c-.36-.89-1.19-1.47-2.28-1.47-1.4 0-2.03.7-2.41 1.3h-.04v-1.11h-2.13m52.43 8.87c.04.03.1.06.16.06.08 0 .12-.05.12-.11 0-.07-.04-.1-.12-.14-.11-.05-.18-.12-.18-.24 0-.13.09-.23.24-.23.07 0 .12.02.15.04l-.03.12c-.02-.02-.06-.04-.13-.04-.07 0-.1.05-.1.1 0 .06.03.09.12.13.11.05.17.13.17.24 0 .14-.08.25-.25.25-.07 0-.14-.03-.18-.05l.03-.13m1.09-.17c0-.1-.001-.23-.001-.35-.03.1-.06.22-.1.32l-.11.37h-.11l-.11-.36c-.03-.11-.06-.22-.08-.33-.001.11-.001.25-.02.36l-.02.34h-.13l.05-.84h.19l.11.34c.03.09.05.19.07.29.03-.09.05-.2.08-.29l.11-.34h.19l.05.84h-.14l-.02-.35"/><path fill="#f3b53d" d="m81.42 35.67c.43 0 .78-.22.83-.5l.42-4.59c0-.46-.55-.83-1.25-.83-.69 0-1.25.37-1.25.83l.42 4.59c.05.28.41.5.83.5m-2.65 1.63c.21-.37.19-.78-.02-.96l-3.74-2.71c-.39-.23-.97.05-1.3.64-.33.6-.27 1.26.11 1.49l4.14 1.99c.26.1.61-.09.82-.45h-.001m4.88 0c.21.36.56.55.82.45l4.13-1.99c.39-.23.45-.89.12-1.49-.33-.59-.92-.87-1.31-.64l-3.73 2.71c-.22.18-.23.59-.03.96m-2.23 3.86c.43 0 .78.21.83.49l.42 4.6c0 .45-.55.82-1.25.82-.69 0-1.25-.37-1.25-.82l.42-4.6c.05-.28.41-.49.83-.49m2.23-1.21c.21-.36.56-.56.82-.46l4.13 2c.39.23.45.89.12 1.48-.33.59-.92.87-1.31.64l-3.73-2.71c-.22-.18-.23-.59-.03-.95m-4.88 0c.21.36.19.77-.02.95l-3.74 2.71c-.39.23-.97-.04-1.3-.64-.33-.59-.27-1.25.11-1.48l4.14-1.99c.26-.11.61.08.82.45h-.001"/><path stroke="#dedede" fill="#fff" d="m283.34 71.42h-76.86c-6.06 0-10.98-4.95-10.98-11.06v-44.22c0-6.1 4.92-11.05 10.98-11.05h76.86c6.06 0 10.97 4.95 10.97 11.05v44.22c0 6.11-4.91 11.06-10.97 11.06"/><g fill="#253b80"><path d="m236.84 32.93h-3.58c-.24 0-.45.19-.49.45l-1.45 9.71c-.02.19.12.36.3.36h1.71c.24 0 .45-.19.49-.44l.39-2.62c.04-.26.25-.45.49-.45h1.13c2.36 0 3.72-1.21 4.08-3.6.16-1.04 0-1.87-.46-2.44-.51-.63-1.41-.97-2.61-.97m.41 3.55c-.19 1.36-1.17 1.36-2.12 1.36h-.54l.38-2.54c.02-.15.15-.27.29-.27h.25c.65 0 1.25 0 1.57.39.19.23.25.58.17 1.06"/><path d="m248.31 36.2h-1.77c-.15 0-.28.11-.3.27l-.08.51-.12-.19c-.38-.57-1.23-.76-2.08-.76-1.95 0-3.62 1.53-3.94 3.68-.17 1.07.07 2.09.66 2.81.53.66 1.3.93 2.22.93 1.57 0 2.44-1.05 2.44-1.05l-.08.51c-.03.2.11.37.3.37h1.59c.25 0 .47-.19.51-.45l.95-6.26c.03-.2-.11-.37-.3-.37m-2.46 3.56c-.17 1.05-.97 1.75-1.99 1.75-.51 0-.92-.17-1.18-.5-.27-.32-.36-.77-.28-1.28.16-1.04.97-1.76 1.97-1.76.51 0 .91.17 1.18.49.27.33.38.79.3 1.3"/><path d="m257.56 36.03h-1.79c-.17 0-.34.08-.43.22l-2.48 3.63-1.05-3.49c-.07-.22-.27-.36-.5-.36h-1.77c-.21 0-.36.2-.29.4l1.98 5.78-1.86 2.61c-.15.2 0 .49.25.49h1.8c.17 0 .33-.09.42-.23l5.98-8.57c.14-.2 0-.48-.26-.48"/></g><g fill="#179bd7"><path d="m263.4 32.93h-3.58c-.25 0-.45.19-.49.45l-1.45 9.71c-.03.19.11.36.29.36h1.84c.17 0 .32-.13.34-.31l.42-2.75c.03-.26.24-.45.49-.45h1.13c2.36 0 3.72-1.21 4.07-3.6.16-1.04.001-1.87-.46-2.44-.5-.63-1.4-.97-2.6-.97m.41 3.55c-.19 1.36-1.18 1.36-2.13 1.36h-.53l.37-2.54c.03-.15.15-.27.3-.27h.25c.64 0 1.25 0 1.57.39.18.23.24.58.17 1.06"/><path d="m274.24 36.2h-1.76c-.15 0-.28.11-.3.27l-.08.51-.12-.19c-.38-.57-1.24-.76-2.09-.76-1.94 0-3.61 1.53-3.93 3.68-.17 1.07.07 2.09.65 2.81.54.66 1.31.93 2.23.93 1.57 0 2.44-1.05 2.44-1.05l-.08.51c-.03.2.11.37.3.37h1.59c.25 0 .47-.19.5-.45l.96-6.26c.03-.2-.12-.37-.31-.37m-2.45 3.56c-.17 1.05-.97 1.75-1.99 1.75-.51 0-.93-.17-1.19-.5-.26-.32-.36-.77-.27-1.28.16-1.04.97-1.76 1.97-1.76.5 0 .91.17 1.18.49.27.33.37.79.3 1.3"/><path d="m276.02 33.2l-1.46 9.89c-.03.19.11.36.29.36h1.47c.24 0 .45-.19.49-.44l1.44-9.71c.03-.2-.11-.37-.29-.37h-1.65c-.14 0-.27.11-.29.27"/></g><path fill="#253b80" d="m216.06 45.31l.27-1.83-.61-.02h-2.93l2.04-13.48c0-.04.02-.07.05-.1.03-.03.07-.04.11-.04h4.93c1.64 0 2.77.35 3.36 1.06.28.33.45.67.54 1.05.09.4.09.88 0 1.46v.04.37l.27.16c.24.13.42.28.56.45.24.28.39.64.46 1.07.06.43.04.95-.07 1.54-.12.68-.33 1.27-.6 1.75-.26.45-.58.82-.96 1.1-.37.27-.8.48-1.3.61-.47.13-1.02.2-1.61.2h-.39c-.27 0-.54.1-.75.29-.21.18-.34.44-.39.73l-.03.16-.48 3.22-.02.12c-.001.04-.02.05-.03.07-.02.001-.04.02-.05.02h-2.37"/><path fill="#179bd7" d="m224.39 33.55c-.001.1-.03.2-.05.3-.67 3.49-2.96 4.7-5.89 4.7h-1.49c-.36 0-.66.26-.71.62l-.77 4.91-.21 1.4c-.04.23.14.44.37.44h2.65c.31 0 .58-.23.63-.54l.02-.14.5-3.2.03-.18c.05-.31.32-.54.63-.54h.39c2.57 0 4.57-1.06 5.16-4.11.24-1.28.11-2.34-.53-3.09-.2-.23-.44-.42-.73-.57"/><path fill="#222d65" d="m223.84 33.18c-.1-.03-.21-.06-.32-.09-.1-.02-.21-.04-.33-.06-.39-.07-.83-.1-1.29-.1h-3.92c-.1 0-.19.02-.28.06-.18.1-.31.27-.34.49l-.84 5.48-.02.16c.05-.36.35-.63.7-.63h1.47c2.89 0 5.15-1.21 5.81-4.72.02-.11.03-.21.05-.31-.17-.09-.35-.17-.55-.23-.04-.02-.09-.04-.14-.05"/><path fill="#253b80" d="m217.3 33.3c.03-.21.16-.38.34-.46.09-.04.18-.06.27-.06h3.92c.47 0 .9.03 1.29.09.12.02.23.04.33.06.11.03.21.05.31.08.05.02.1.03.15.05.2.06.38.14.54.23.2-1.25 0-2.1-.67-2.86-.75-.85-2.09-1.21-3.81-1.21h-5c-.35 0-.65.25-.71.6l-2.08 13.14c-.04.26.16.49.42.49h3.09l.77-4.89.84-5.26"/><path d="m192.91 78h-91c-7.18 0-13-5.82-13-13v-52c0-7.18 5.82-13 13-13h91c7.18 0 13 5.82 13 13v52c0 7.18-5.82 13-13 13"/><path fill="#f90" d="m115.23 55.43c8.48 7.86 19.65 12.57 32.15 12.57 7.75 0 16.69-2.22 23.59-6.45.92-.55 1.84-1.15 2.69-1.82 1.19-.87.14-2.22-1.05-1.68-.52.2-1.12.47-1.64.67-7.56 3.03-15.51 4.44-22.87 4.44-11.71 0-23.01-3.3-32.15-8.74-.85-.47-1.44.4-.72 1.01m64.68-.4c0-.55-.13-.95-.26-1.15-.59-.74-4.94-1.41-8.68-.27-1.05.34-1.97.81-2.83 1.42-.65.47-.52 1.07.14 1 .72-.13 1.64-.2 2.69-.34 2.3-.19 5-.26 5.65.61.92 1.14-1.05 6.12-1.91 8.27-.26.67.33.94.93.47 2.95-2.55 4.2-7.19 4.27-9.61v-.4"/><path fill="#fff" d="m162.62 48.13c-1.28-1.66-2.86-3.09-2.86-6.28l-.1-10.68c0-4.5.75-8.65-2.5-11.73-2.67-2.49-6.85-3.44-10.11-3.44h-1.39c-5.92.36-12.2 2.96-13.59 10.43-.23.95.47 1.3.93 1.43l6.5.83c.7-.13 1.05-.72 1.16-1.31.59-2.61 2.68-3.91 5-4.15h.47c1.38 0 2.9.6 3.71 1.78.93 1.42.81 3.32.81 4.98v.95c-1.51.12-3.25.23-4.99.47-2.67.36-5.34.83-7.55 1.9-4.3 1.78-7.2 5.57-7.2 11.14 0 7 4.41 10.55 9.99 10.55 1.86 0 3.37-.23 4.76-.59 2.21-.71 4.06-2.01 6.27-4.39 1.28 1.78 1.63 2.61 3.83 4.51.59.24 1.17.24 1.63-.12 1.39-1.19 3.83-3.32 5.11-4.5.58-.48.46-1.19.12-1.78m-16.96 0c-.23 0-.58.12-.93.12-2.55 0-4.07-2.02-4.07-4.98 0-3.8 2.21-5.58 5-6.41 1.51-.35 3.25-.47 4.99-.47v1.42c0 2.73.12 4.87-1.27 7.23-.82 1.66-2.21 2.73-3.72 3.09"/></g></svg>