<?xml version="1.0" encoding="UTF-8"?>
<svg id="Layer_1" data-name="Layer 1" xmlns="http://www.w3.org/2000/svg" viewBox="0 0 494.93 288.75">
  <defs>
    <style>
      .cls-1 {
        stroke: #339fba;
      }

      .cls-1, .cls-2, .cls-3, .cls-4, .cls-5, .cls-6, .cls-7, .cls-8, .cls-9, .cls-10, .cls-11, .cls-12, .cls-13, .cls-14, .cls-15, .cls-16, .cls-17, .cls-18, .cls-19 {
        fill-rule: evenodd;
      }

      .cls-1, .cls-2, .cls-3, .cls-4, .cls-7, .cls-8, .cls-9, .cls-10, .cls-15, .cls-18 {
        fill: #f4f6f6;
        stroke-miterlimit: 4;
      }

      .cls-1, .cls-2, .cls-4, .cls-7, .cls-8, .cls-9 {
        stroke-width: 4px;
      }

      .cls-2, .cls-3 {
        stroke: #acdabc;
      }

      .cls-3, .cls-10, .cls-15, .cls-18 {
        stroke-width: 4px;
      }

      .cls-4, .cls-10 {
        stroke: #fdcc00;
      }

      .cls-5 {
        fill: #fff;
      }

      .cls-6 {
        fill: #e6877f;
      }

      .cls-7 {
        stroke: #f3b276;
      }

      .cls-8 {
        stroke: #6ec9c0;
      }

      .cls-9, .cls-15 {
        stroke: #e98780;
      }

      .cls-11 {
        fill: #fdcc00;
      }

      .cls-12 {
        fill: #aedabb;
      }

      .cls-13 {
        fill: #a397b7;
      }

      .cls-14 {
        fill: #dedede;
      }

      .cls-16 {
        fill: #f1b171;
      }

      .cls-17 {
        fill: #339fba;
      }

      .cls-18 {
        stroke: #a397b6;
      }

      .cls-19 {
        fill: #73c9c0;
      }
    </style>
  </defs>
  <g>
    <path class="cls-15" d="M35.45,159.19c18.48,0,33.46-14.98,33.46-33.45s-14.99-33.45-33.46-33.45S2,107.26,2,125.74s14.98,33.45,33.45,33.45Z"/>
    <path class="cls-6" d="M18.76,116.14c-.47,.61-.75,1.36-.75,2.19,0,1.97,1.61,3.58,3.58,3.58,1.12,0,2.12-.51,2.78-1.31,.65,.8,1.65,1.31,2.77,1.31s2.11-.51,2.77-1.31c.66,.8,1.65,1.31,2.77,1.31s2.11-.51,2.77-1.31c.66,.8,1.66,1.31,2.77,1.31s2.12-.51,2.77-1.31c.66,.8,1.66,1.31,2.78,1.31s2.11-.51,2.77-1.31c.65,.8,1.65,1.31,2.77,1.31,1.98,0,3.58-1.61,3.58-3.58,0-.81-.27-1.55-.71-2.15l-4.18-5.74H22.74l-3.99,5.7m1.4,5.96v17.5h30.59v-17.5c-.47,.18-.99,.29-1.53,.29-1.06,0-2.03-.4-2.77-1.05-.76,.65-1.74,1.04-2.81,1.04s-2.02-.38-2.77-1.01c-.73,.63-1.68,1.01-2.71,1.01s-1.98-.38-2.71-1c-.73,.62-1.67,1-2.71,1s-2.09-.42-2.84-1.12c-.76,.7-1.78,1.12-2.89,1.12-1.02,0-1.96-.36-2.69-.95-.72,.59-1.65,.95-2.65,.95-.54,0-1.05-.1-1.52-.28m5.74,6.03h5.74v11.47h-5.74v-11.47m9.56,0h11.48v5.73h-11.48v-5.73"/>
    <path class="cls-10" d="M150.82,159.19c18.49,0,33.46-14.98,33.46-33.45s-14.98-33.45-33.46-33.45-33.45,14.98-33.45,33.45,14.98,33.45,33.45,33.45Z"/>
    <path class="cls-11" d="M136.7,132.5v-16.43h29v16.43h-29m27.19-14.6h-25.38v12.77h25.38v-12.77m-1.82,10.95h-21.75v-9.13h21.75v9.13m-1.81,7.3h-18.13v-1.83h18.13v1.83"/>
    <path class="cls-18" d="M92.82,159.19c18.49,0,33.46-14.98,33.46-33.45s-14.98-33.45-33.46-33.45-33.45,14.98-33.45,33.45,14.98,33.45,33.45,33.45Z"/>
    <path class="cls-13" d="M99.27,137.64h-12.89c-1.78,0-3.22-1.46-3.22-3.26v-16.26c0-1.8,1.44-3.26,3.22-3.26v3.26h12.89v-3.26c1.78,0,3.22,1.46,3.22,3.26v16.26c0,1.8-1.44,3.26-3.22,3.26m0-16.27h-12.89v1.63h12.89v-1.63m0,3.25h-12.89v1.63h12.89v-1.63m0,3.26h-12.89v1.62h12.89v-1.62m0,3.25h-12.89v1.63h12.89v-1.63m-11.28-16.27c0-.89,.72-1.62,1.61-1.62,0-.9,.72-1.63,1.61-1.63h3.23c.89,0,1.61,.73,1.61,1.63,.89,0,1.61,.73,1.61,1.62v1.63h-9.67v-1.63"/>
    <path class="cls-3" d="M207.74,159.19c18.49,0,33.46-14.98,33.46-33.45s-14.98-33.45-33.46-33.45-33.45,14.98-33.45,33.45,14.98,33.45,33.45,33.45h0Z"/>
    <path class="cls-12" d="M212.17,115.46c-1.53,0-3-.32-4.41-.62-1.43-.32-2.91-.99-4.48-.99-3.12,0-4.68,1.04-4.79,1.12l-.23,.16v22.49h1.56v-10.4c.42-.17,1.45-.71,3.46-.71,1.46,0,2.82,.54,4.26,.85,1.47,.33,2.99,.75,4.63,.75,3.21,0,4.62-.8,4.7-.83l.35-.13v-13.21s-1.31,1.52-5.05,1.52"/>
    <path class="cls-18" d="M35.45,234.75c18.49,0,33.46-14.98,33.46-33.45s-14.98-33.45-33.46-33.45S2,182.82,2,201.3s14.98,33.45,33.45,33.45h0Z"/>
    <path class="cls-13" d="M41.9,213.19h-12.89c-1.78,0-3.22-1.46-3.22-3.26v-16.26c0-1.8,1.44-3.26,3.22-3.26v3.26h12.89v-3.26c1.78,0,3.22,1.46,3.22,3.26v16.26c0,1.8-1.44,3.26-3.22,3.26m0-16.27h-12.89v1.63h12.89v-1.63m0,3.25h-12.89v1.63h12.89v-1.63m0,3.26h-12.89v1.62h12.89v-1.62m0,3.25h-12.89v1.63h12.89v-1.63m-11.28-16.27c0-.89,.72-1.62,1.61-1.62,0-.9,.72-1.63,1.61-1.63h3.23c.89,0,1.61,.73,1.61,1.63,.89,0,1.61,.73,1.61,1.62v1.63h-9.67v-1.63"/>
    <path class="cls-3" d="M150.37,234.75c18.49,0,33.46-14.98,33.46-33.45s-14.98-33.45-33.46-33.45-33.45,14.98-33.45,33.45,14.98,33.45,33.45,33.45h0Z"/>
    <path class="cls-12" d="M154.79,191.02c-1.53,0-3-.32-4.41-.62-1.43-.32-2.91-.99-4.48-.99-3.12,0-4.68,1.04-4.79,1.12l-.23,.16v22.49h1.56v-10.4c.42-.17,1.45-.71,3.46-.71,1.46,0,2.82,.54,4.26,.85,1.47,.33,2.99,.75,4.63,.75,3.21,0,4.62-.8,4.7-.83l.35-.13v-13.21s-1.31,1.52-5.05,1.52"/>
    <path class="cls-10" d="M93.44,234.75c18.49,0,33.46-14.98,33.46-33.45s-14.98-33.45-33.46-33.45-33.45,14.98-33.45,33.45,14.98,33.45,33.45,33.45h0Z"/>
    <path class="cls-11" d="M79.33,208.06v-16.43h29v16.43h-29m27.19-14.6h-25.38v12.77h25.38v-12.77m-1.82,10.95h-21.75v-9.13h21.75v9.13m-1.81,7.3h-18.13v-1.83h18.13v1.83"/>
    <g>
      <path class="cls-5" d="M44.11,83.23c21.6,0,39.11-17.51,39.11-39.11S65.71,5,44.11,5c-21.6,0-39.11,17.51-39.11,39.11s17.51,39.11,39.11,39.11m0,5C19.75,88.23,0,68.47,0,44.11S19.75,0,44.11,0s44.11,19.75,44.11,44.11-19.75,44.11-44.11,44.11"/>
      <circle cx="44.11" cy="44.1" r="39.49"/>
      <path class="cls-5" d="M36.87,61.76c-2.9,1.59-5.25,.2-5.25-3.11V30.31c0-3.31,2.36-4.7,5.25-3.11l26.29,14.4c2.9,1.59,2.89,4.17,0,5.76l-26.29,14.4"/>
    </g>
    <path class="cls-14" d="M127.39,63.91c0-.54,.16-1.07,.51-1.55l13.16-18.12-13.16-18.06c-.93-1.29-.56-3.03,.85-3.88,1.4-.86,3.3-.51,4.24,.77l14.28,19.61c.68,.94,.69,2.17,0,3.11l-14.28,19.67c-.94,1.29-2.84,1.64-4.24,.78-.88-.54-1.37-1.43-1.37-2.33"/>
    <path class="cls-19" d="M221.49,64.85h-39.99c-4.42,0-8-3.58-8-8v-24c0-4.42,3.58-8,8-8h39.99c4.42,0,8,3.58,8,8v24c0,4.42-3.58,8-8,8m-43.99-16v4h47.99v-4h-47.99"/>
  </g>
  <path class="cls-17" d="M22.01,276.81h0s19.48-24.92,19.48-24.92l-4.02-3.14-16.88,21.61-8.46-6.61-3.14,4.02,12.46,9.74,.55-.7h0Zm2.99,11.94c13.81,0,25-11.19,25-25s-11.19-25-25-25S0,249.95,0,263.75s11.19,25,25,25Z"/>
  <g>
    <path class="cls-9" d="M289.46,106.88c18.49,0,33.47-14.98,33.47-33.46s-14.98-33.46-33.47-33.46-33.46,14.98-33.46,33.46,14.98,33.46,33.46,33.46h0Z"/>
    <path class="cls-6" d="M272.76,63.83c-.47,.6-.75,1.36-.75,2.18,0,1.98,1.61,3.58,3.59,3.58,1.11,0,2.11-.51,2.77-1.31,.66,.8,1.65,1.31,2.77,1.31s2.11-.51,2.77-1.31c.66,.8,1.66,1.31,2.77,1.31s2.12-.51,2.77-1.31c.66,.8,1.66,1.31,2.78,1.31s2.11-.51,2.77-1.31c.65,.8,1.65,1.31,2.77,1.31s2.11-.51,2.77-1.31c.66,.8,1.65,1.31,2.77,1.31,1.98,0,3.58-1.6,3.58-3.58,0-.81-.26-1.55-.71-2.15h.02l-4.19-5.73h-25.26l-3.99,5.7h0Zm1.41,5.95v17.5h30.59v-17.5c-.47,.19-.99,.29-1.53,.29-1.06,0-2.03-.4-2.77-1.05-.75,.65-1.74,1.04-2.81,1.04s-2.02-.38-2.76-1c-.37,.31-.79,.56-1.25,.73-.46,.18-.95,.27-1.47,.27-1.03,0-1.98-.37-2.71-.99-.73,.62-1.67,.99-2.7,.99-1.1,0-2.1-.42-2.85-1.11-.76,.69-1.77,1.11-2.89,1.11-1.02,0-1.95-.35-2.69-.95-.72,.6-1.65,.95-2.65,.95-.53,0-1.04-.1-1.51-.28h0Zm5.73,6.03h5.74v11.47h-5.74v-11.47h0Zm9.56,0h11.48v5.74h-11.48v-5.74Z"/>
    <path class="cls-4" d="M402.96,106.88c18.49,0,33.47-14.98,33.47-33.46s-14.98-33.46-33.47-33.46-33.46,14.98-33.46,33.46,14.98,33.46,33.46,33.46h0Z"/>
    <path class="cls-11" d="M388.84,80.18v-16.42h29v16.42h-29Zm27.18-14.6h-25.37v12.78h25.37v-12.78Zm-1.81,10.95h-21.75v-9.12h21.75v9.12Zm-1.81,7.3h-18.13v-1.82h18.13v1.82Z"/>
    <path class="cls-7" d="M345.96,106.88c18.49,0,33.47-14.98,33.47-33.46s-14.98-33.46-33.47-33.46-33.46,14.98-33.46,33.46,14.98,33.46,33.46,33.46h0Z"/>
    <path class="cls-16" d="M355.64,59.96h-19.28c-2.12,0-3.86,1.74-3.86,3.86v19.29c0,2.12,1.74,3.85,3.86,3.85h19.28c2.12,0,3.86-1.73,3.86-3.85v-19.29c0-2.12-1.74-3.86-3.86-3.86h0Zm-16.39,9.65c-1.54,0-2.89-1.35-2.89-2.9s1.35-2.89,2.89-2.89,2.89,1.35,2.89,2.89-1.35,2.9-2.89,2.9Zm6.75,6.75c-1.54,0-2.89-1.35-2.89-2.9s1.35-2.89,2.89-2.89,2.89,1.35,2.89,2.89-1.35,2.9-2.89,2.9Zm6.75,6.75c-1.54,0-2.89-1.35-2.89-2.9s1.35-2.89,2.89-2.89,2.89,1.35,2.89,2.89-1.35,2.9-2.89,2.9Z"/>
    <path class="cls-2" d="M459.46,106.88c18.49,0,33.47-14.98,33.47-33.46s-14.98-33.46-33.47-33.46-33.46,14.98-33.46,33.46,14.98,33.46,33.46,33.46h0Z"/>
    <path class="cls-12" d="M463.89,63.15c-1.53,0-3-.32-4.41-.63-1.43-.31-2.91-.98-4.48-.98-3.12,0-4.68,1.03-4.79,1.11l-.23,.16v22.5h1.56v-10.41c.42-.16,1.45-.71,3.46-.71,1.46,0,2.82,.54,4.26,.86,1.47,.32,2.99,.75,4.63,.75,3.21,0,4.62-.81,4.7-.84l.35-.12v-13.22s-1.31,1.53-5.05,1.53Z"/>
  </g>
  <path class="cls-1" d="M289.46,235.75c18.49,0,33.47-14.98,33.47-33.46s-14.98-33.46-33.47-33.46-33.46,14.98-33.46,33.46,14.98,33.46,33.46,33.46h0Z"/>
  <path class="cls-17" d="M285.93,186.26h7v28h-7v-28Zm6.95,28.95l-3.48,3.47-3.47-3.47h6.95Z"/>
  <path class="cls-8" d="M365.46,235.75c18.49,0,33.47-14.98,33.47-33.46s-14.98-33.46-33.47-33.46-33.46,14.98-33.46,33.46,14.98,33.46,33.46,33.46h0Z"/>
  <path class="cls-19" d="M375,211.83h-20c-2.21,0-4-1.7-4-3.8v-11.4c0-2.1,1.79-3.8,4-3.8h20c2.21,0,4,1.7,4,3.8v11.4c0,2.1-1.79,3.8-4,3.8h0Zm-22-7v2h24v-2h-24Z"/>
</svg>