<?xml version="1.0" encoding="utf-8"?>
<!-- Generator: Adobe Illustrator 26.4.1, SVG Export Plug-In . SVG Version: 6.00 Build 0)  -->
<svg version="1.1" id="Layer_1" xmlns="http://www.w3.org/2000/svg" xmlns:xlink="http://www.w3.org/1999/xlink" x="0px" y="0px"
	 viewBox="0 0 500 155.5" style="enable-background:new 0 0 500 155.5;" xml:space="preserve">
<style type="text/css">
	.st0{fill-rule:evenodd;clip-rule:evenodd;fill:#F4F6F6;stroke:#E98780;stroke-width:4.0003;stroke-miterlimit:3.9993;}
	.st1{fill-rule:evenodd;clip-rule:evenodd;fill:#E6877F;}
	.st2{fill-rule:evenodd;clip-rule:evenodd;fill:#F4F6F6;stroke:#FDCC00;stroke-width:4.0003;stroke-miterlimit:3.9993;}
	.st3{fill-rule:evenodd;clip-rule:evenodd;fill:#FDCC00;}
	.st4{fill-rule:evenodd;clip-rule:evenodd;fill:#F4F6F6;stroke:#F3B276;stroke-width:4.0003;stroke-miterlimit:3.9993;}
	.st5{fill-rule:evenodd;clip-rule:evenodd;fill:#F1B171;}
	.st6{fill-rule:evenodd;clip-rule:evenodd;fill:#F4F6F6;stroke:#ACDABC;stroke-width:4.0003;stroke-miterlimit:3.9993;}
	.st7{fill-rule:evenodd;clip-rule:evenodd;fill:#AEDABB;}
</style>
<g>
	<path class="st0" d="M82.4,143.7c36.5,0,66-29.5,66-66s-29.5-66-66-66c-36.4,0-66,29.5-66,66S46,143.7,82.4,143.7L82.4,143.7z"/>
	<path class="st1" d="M49.5,58.8C48.6,60,48,61.5,48,63.1c0,3.9,3.2,7.1,7.1,7.1c2.2,0,4.2-1,5.5-2.6c1.3,1.6,3.3,2.6,5.5,2.6
		s4.2-1,5.5-2.6c1.3,1.6,3.3,2.6,5.5,2.6c2.2,0,4.2-1,5.5-2.6c1.3,1.6,3.3,2.6,5.5,2.6c2.2,0,4.2-1,5.5-2.6c1.3,1.6,3.3,2.6,5.5,2.6
		c2.2,0,4.2-1,5.5-2.6c1.3,1.6,3.3,2.6,5.5,2.6c3.9,0,7.1-3.2,7.1-7.1c0-1.6-0.5-3.1-1.4-4.2h0l-8.3-11.3H57.3L49.5,58.8L49.5,58.8z
		 M52.3,70.6v34.5h60.3V70.6c-0.9,0.4-2,0.6-3,0.6c-2.1,0-4-0.8-5.5-2.1c-1.5,1.3-3.4,2.1-5.5,2.1c-2.1,0-4-0.7-5.4-2
		c-0.7,0.6-1.6,1.1-2.5,1.4c-0.9,0.4-1.9,0.5-2.9,0.5c-2,0-3.9-0.7-5.3-2c-1.4,1.2-3.3,2-5.3,2c-2.2,0-4.1-0.8-5.6-2.2
		c-1.5,1.4-3.5,2.2-5.7,2.2c-2,0-3.8-0.7-5.3-1.9c-1.4,1.2-3.3,1.9-5.2,1.9C54.2,71.1,53.2,70.9,52.3,70.6L52.3,70.6z M63.6,82.5
		h11.3v22.6H63.6L63.6,82.5L63.6,82.5z M82.4,82.5H105v11.3H82.4V82.5z"/>
	<path class="st2" d="M306.2,143.7c36.5,0,66-29.5,66-66s-29.5-66-66-66c-36.4,0-66,29.5-66,66S269.7,143.7,306.2,143.7L306.2,143.7
		z"/>
	<path class="st3" d="M278.3,91.1V58.7h57.2v32.4H278.3L278.3,91.1z M331.9,62.3h-50v25.2h50V62.3z M328.4,83.9h-42.9v-18h42.9V83.9
		z M324.8,98.3H289v-3.6h35.7V98.3z"/>
	<path class="st4" d="M193.8,143.7c36.5,0,66-29.5,66-66s-29.5-66-66-66c-36.4,0-66,29.5-66,66S157.4,143.7,193.8,143.7L193.8,143.7
		z"/>
	<path class="st5" d="M212.9,51.2h-38c-4.2,0-7.6,3.4-7.6,7.6v38c0,4.2,3.4,7.6,7.6,7.6h38c4.2,0,7.6-3.4,7.6-7.6v-38
		C220.5,54.6,217.1,51.2,212.9,51.2L212.9,51.2z M180.6,70.2c-3,0-5.7-2.7-5.7-5.7c0-3,2.7-5.7,5.7-5.7s5.7,2.7,5.7,5.7
		C186.3,67.6,183.6,70.2,180.6,70.2z M193.9,83.5c-3,0-5.7-2.7-5.7-5.7c0-3,2.7-5.7,5.7-5.7c3,0,5.7,2.7,5.7,5.7
		C199.6,80.9,196.9,83.5,193.9,83.5z M207.2,96.8c-3,0-5.7-2.7-5.7-5.7c0-3,2.7-5.7,5.7-5.7c3,0,5.7,2.7,5.7,5.7
		C212.9,94.2,210.2,96.8,207.2,96.8z"/>
	<path class="st6" d="M417.6,143.7c36.5,0,66-29.5,66-66s-29.5-66-66-66c-36.4,0-66,29.5-66,66S381.1,143.7,417.6,143.7L417.6,143.7
		z"/>
	<path class="st7" d="M426.3,57.5c-3,0-5.9-0.6-8.7-1.2c-2.8-0.6-5.7-1.9-8.8-1.9c-6.2,0-9.2,2-9.4,2.2l-0.5,0.3v44.4h3.1V80.7
		c0.8-0.3,2.9-1.4,6.8-1.4c2.9,0,5.6,1.1,8.4,1.7c2.9,0.6,5.9,1.5,9.1,1.5c6.3,0,9.1-1.6,9.3-1.7l0.7-0.2V54.5
		C436.3,54.5,433.7,57.5,426.3,57.5z"/>
</g>
</svg>
